<svg width="36" height="36" xmlns="http://www.w3.org/2000/svg">

 <g>
  <title>background</title>
  <rect fill="none" id="canvas_background" height="38" width="38" y="-1" x="-1"/>
 </g>
 <g>
  <title>Layer 1</title>
  <path stroke="null" fill="#ff5656" id="svg_2" d="m29.694247,0.5l-23.416219,0c-3.193121,0 -5.778028,2.584907 -5.778028,5.778028l0,23.416219c0,3.193121 2.584907,5.778028 5.778028,5.778028l23.416219,0c3.193121,0 5.778028,-2.584907 5.778028,-5.778028l0,-23.416219c0,-3.193121 -2.584907,-5.778028 -5.778028,-5.778028zm-10.187576,21.439525l-6.690348,0c-0.45616,0 -0.760267,0.304107 -0.760267,0.760267l0,6.386241l-3.193121,0l0,-22.199792l10.643736,0c4.105441,0 7.602668,3.345174 7.602668,7.602668c0,4.105441 -3.345174,7.450615 -7.602668,7.450615z"/>
  <path stroke="null" fill="#ff5b5b" id="svg_3" d="m19.770677,9.950598l-6.84719,0c-0.466854,0 -0.77809,0.311236 -0.77809,0.77809l0,7.314044c0,0.466854 0.311236,0.77809 0.77809,0.77809l6.84719,0c2.489887,0 4.708906,-2.023033 4.708906,-4.357303c0.155618,-2.489887 -2.219019,-4.512921 -4.708906,-4.512921z"/>
 </g>
</svg>